<svg width="16" height="16" viewBox="0 0 16 16" fill="none" xmlns="http://www.w3.org/2000/svg">
<g id="chev-down">
<path id="Vector" d="M2.04997 4.6333C2.21663 4.46663 2.41397 4.3833 2.64197 4.3833C2.86997 4.3833 3.06708 4.46663 3.2333 4.6333L8.11663 9.51663L13.0166 4.61663C13.1722 4.46108 13.3666 4.3833 13.6 4.3833C13.8333 4.3833 14.0333 4.46663 14.2 4.6333C14.3666 4.79997 14.45 4.9973 14.45 5.2253C14.45 5.4533 14.3666 5.65041 14.2 5.81663L8.5833 11.4166C8.51663 11.4833 8.44441 11.5306 8.36663 11.5586C8.28886 11.5866 8.20552 11.6004 8.11663 11.6C8.02774 11.6 7.94441 11.586 7.86663 11.558C7.78886 11.53 7.71663 11.4829 7.64997 11.4166L2.0333 5.79997C1.87774 5.64441 1.79997 5.45263 1.79997 5.22463C1.79997 4.99663 1.8833 4.79952 2.04997 4.6333Z" fill="black"/>
</g>
</svg>
