<svg width="16" height="17" viewBox="0 0 16 17" fill="none" xmlns="http://www.w3.org/2000/svg">
<g id="chev-down">
<path id="Vector" d="M2.04997 4.9458C2.21663 4.77913 2.41397 4.6958 2.64197 4.6958C2.86997 4.6958 3.06708 4.77913 3.2333 4.9458L8.11663 9.82913L13.0166 4.92913C13.1722 4.77358 13.3666 4.6958 13.6 4.6958C13.8333 4.6958 14.0333 4.77913 14.2 4.9458C14.3666 5.11247 14.45 5.3098 14.45 5.5378C14.45 5.7658 14.3666 5.96291 14.2 6.12913L8.5833 11.7291C8.51663 11.7958 8.44441 11.8431 8.36663 11.8711C8.28886 11.8991 8.20552 11.9129 8.11663 11.9125C8.02774 11.9125 7.94441 11.8985 7.86663 11.8705C7.78886 11.8425 7.71663 11.7954 7.64997 11.7291L2.0333 6.11247C1.87774 5.95691 1.79997 5.76513 1.79997 5.53713C1.79997 5.30913 1.8833 5.11202 2.04997 4.9458Z" fill="#BBBBBB"/>
</g>
</svg>
